<?xml version="1.0" standalone="no"?>
<!DOCTYPE svg PUBLIC "-//W3C//DTD SVG 20010904//EN"
 "http://www.w3.org/TR/2001/REC-SVG-20010904/DTD/svg10.dtd">
<svg version="1.0" xmlns="http://www.w3.org/2000/svg"
 width="1024.000000pt" height="1024.000000pt" viewBox="0 0 1024.000000 1024.000000"
 preserveAspectRatio="xMidYMid meet">

<g transform="translate(0.000000,1024.000000) scale(0.100000,-0.100000)"
fill="#000000" stroke="none">
<path d="M5018 7748 c-88 -75 -429 -375 -663 -583 -93 -83 -321 -283 -505
-444 -184 -162 -343 -308 -352 -325 -31 -54 -19 -115 32 -161 19 -17 40 -21
149 -25 l126 -5 1 -355 c1 -472 -9 -445 262 -686 92 -82 302 -270 466 -419
545 -492 549 -495 598 -495 31 0 77 37 349 285 96 88 333 303 526 477 234 211
359 331 377 361 51 88 56 132 56 499 l0 338 116 0 c128 0 158 10 188 60 20 35
21 92 2 129 -8 15 -81 86 -163 157 -81 71 -263 230 -403 354 -140 124 -349
308 -465 410 -115 101 -282 248 -370 326 -89 77 -170 146 -182 153 -43 22 -70
13 -145 -51z m182 -505 c248 -215 852 -757 860 -773 13 -24 14 -839 1 -873
-14 -35 -867 -816 -917 -839 -18 -8 -28 -7 -46 4 -23 16 -642 566 -820 730
l-98 90 0 448 0 449 163 144 c681 606 753 667 780 667 12 0 47 -21 77 -47z"/>
<path d="M5080 6590 c-100 -16 -181 -75 -228 -164 -23 -44 -27 -63 -27 -141 0
-105 17 -146 95 -229 l47 -51 -33 -225 c-39 -263 -38 -254 -18 -274 23 -24
395 -24 418 0 20 20 21 10 -17 275 l-33 226 57 60 c66 71 89 128 89 222 0 184
-169 330 -350 301z"/>
<path d="M6834 4031 c-43 -26 -60 -77 -41 -123 19 -45 39 -60 90 -65 113 -13
158 140 57 192 -39 20 -68 19 -106 -4z"/>
<path d="M1780 3531 l0 -441 95 0 94 0 3 141 3 141 125 2 c146 3 206 19 269
72 61 53 84 103 89 200 8 143 -47 244 -161 295 -49 23 -65 24 -284 27 l-233 3
0 -440z m445 256 c46 -26 67 -72 60 -129 -14 -102 -44 -121 -197 -126 l-118
-4 0 141 0 141 108 0 c93 0 112 -3 147 -23z"/>
<path d="M4600 3530 l0 -440 90 0 90 0 2 296 3 296 166 -244 c92 -133 182
-267 200 -295 l34 -53 103 0 102 0 0 440 0 440 -90 0 -91 0 3 -295 c3 -258 -1
-324 -14 -285 -1 5 -91 138 -198 295 l-195 285 -102 0 -103 0 0 -440z"/>
<path d="M6300 3825 l0 -95 -45 0 -45 0 0 -65 c0 -36 -1 -68 -2 -72 -2 -3 18
-6 45 -6 l47 1 0 -177 c0 -199 10 -238 71 -283 49 -36 92 -48 178 -48 122 0
122 1 119 79 l-3 66 -69 6 c-59 5 -73 10 -93 33 -22 26 -23 34 -23 176 l0 149
95 -2 95 -2 0 73 0 72 -95 0 -95 0 0 95 0 95 -90 0 -90 0 0 -95z"/>
<path d="M2861 3740 c-42 -10 -80 -38 -108 -80 l-23 -33 0 52 0 51 -85 0 -85
0 0 -320 0 -320 85 0 85 0 0 188 c0 158 3 192 18 222 24 48 67 70 141 73 l62
2 -3 85 c-3 83 -4 85 -28 87 -14 1 -40 -2 -59 -7z"/>
<path d="M3250 3735 c-165 -46 -248 -167 -238 -349 11 -198 131 -306 339 -306
205 0 331 124 331 325 0 145 -59 247 -175 305 -78 38 -175 48 -257 25z m188
-171 c85 -63 96 -213 20 -291 -63 -65 -165 -65 -225 1 -78 85 -65 232 28 294
28 20 44 23 92 20 36 -3 67 -12 85 -24z"/>
<path d="M4088 3739 c-20 -6 -54 -26 -76 -45 -22 -19 -42 -34 -44 -34 -2 0 -2
16 0 35 l4 35 -91 0 -91 0 0 -445 0 -445 90 0 91 0 -3 160 c-2 88 0 160 3 160
3 0 16 -11 28 -24 41 -44 89 -60 176 -60 134 1 225 57 279 173 31 67 30 245
-1 313 -31 67 -95 132 -156 158 -59 26 -154 34 -209 19z m157 -192 c48 -48 63
-100 50 -183 -13 -91 -104 -154 -196 -139 -112 19 -173 164 -116 275 32 65 75
90 155 90 63 0 66 -1 107 -43z"/>
<path d="M5747 3740 c-50 -13 -106 -42 -140 -74 -31 -29 -66 -99 -67 -133 0
-22 4 -23 83 -23 82 0 83 0 94 30 13 36 67 70 110 70 69 0 105 -31 118 -102
l7 -38 -119 0 c-178 0 -251 -27 -293 -111 -24 -45 -26 -128 -6 -167 40 -76
117 -115 226 -115 78 0 122 14 168 56 l22 20 0 -31 0 -32 85 0 85 0 0 218 c0
252 -8 297 -67 357 -20 21 -56 46 -81 57 -50 23 -169 32 -225 18z m200 -397
c10 -26 -19 -94 -50 -117 -39 -29 -145 -30 -176 -2 -27 24 -29 86 -3 108 23
22 44 25 140 27 68 1 84 -2 89 -16z"/>
<path d="M7351 3740 c-103 -22 -195 -92 -234 -179 -28 -64 -35 -189 -13 -264
33 -113 116 -186 246 -213 171 -35 329 35 394 175 30 66 30 226 -1 293 -65
141 -232 221 -392 188z m159 -172 c46 -32 69 -66 78 -118 23 -127 -46 -224
-158 -224 -97 0 -163 71 -164 177 -1 115 60 187 159 187 38 0 61 -6 85 -22z"/>
<path d="M8183 3741 c-42 -11 -82 -36 -110 -70 l-23 -26 0 43 0 42 -85 0 -85
0 0 -320 0 -320 85 0 85 0 1 193 c0 217 7 250 58 284 64 43 168 19 192 -43 5
-15 11 -118 12 -230 l2 -204 88 0 87 0 0 193 c0 252 -15 330 -74 395 -48 54
-156 83 -233 63z"/>
<path d="M6790 3410 l0 -320 95 0 95 0 0 320 0 320 -95 0 -95 0 0 -320z"/>
<path d="M2070 2672 c0 -2 25 -52 55 -111 48 -93 55 -115 55 -164 0 -50 2 -57
20 -57 18 0 20 7 20 57 0 49 7 70 55 160 30 57 55 107 55 111 0 4 -10 8 -21 8
-18 0 -30 -18 -63 -88 -23 -48 -43 -87 -46 -87 -3 0 -23 39 -46 87 -33 70 -45
88 -63 88 -11 0 -21 -2 -21 -4z"/>
<path d="M3240 2510 l0 -170 26 0 c24 0 25 2 22 58 l-3 57 68 5 c60 4 72 9 93
33 17 20 24 40 24 72 0 79 -54 114 -177 115 l-53 0 0 -170z m171 104 c7 -9 13
-31 13 -49 0 -52 -18 -65 -85 -65 l-59 0 0 65 0 65 59 0 c41 0 62 -5 72 -16z"/>
<path d="M5525 2666 c-89 -41 -121 -151 -72 -246 28 -56 72 -82 137 -82 30 0
62 7 82 19 41 23 78 94 78 148 0 49 -35 122 -72 148 -34 25 -113 32 -153 13z
m126 -51 c32 -21 49 -59 49 -113 0 -48 -4 -58 -34 -88 -28 -28 -42 -34 -76
-34 -34 0 -48 6 -76 34 -30 30 -34 40 -34 88 0 65 27 115 67 124 15 3 33 7 38
8 13 4 45 -6 66 -19z"/>
<path d="M6418 2674 c-5 -4 -8 -81 -8 -171 l0 -163 25 0 c24 0 25 3 25 60 l0
60 55 0 c90 0 126 28 128 103 1 42 -16 78 -46 97 -24 15 -168 27 -179 14z
m164 -61 c22 -20 23 -61 2 -91 -12 -18 -25 -22 -70 -22 l-54 0 0 65 0 65 52 0
c34 0 58 -6 70 -17z"/>
<path d="M6910 2655 c0 -18 5 -25 20 -25 11 0 20 7 20 15 0 8 1 18 3 22 1 3
-8 8 -20 9 -19 3 -23 -1 -23 -21z"/>
<path d="M7527 2653 c-3 -19 0 -23 19 -23 19 0 24 5 24 24 0 33 -37 32 -43 -1z"/>
<path d="M4800 2610 c0 -23 -4 -30 -20 -30 -13 0 -20 -7 -20 -20 0 -13 7 -20
20 -20 18 0 20 -7 20 -83 0 -69 3 -87 18 -100 24 -22 92 -23 92 -2 0 9 -9 15
-23 15 -38 0 -47 19 -47 97 l0 73 35 0 c28 0 35 4 35 20 0 16 -7 20 -35 20
-32 0 -35 2 -35 30 0 23 -4 30 -20 30 -16 0 -20 -7 -20 -30z"/>
<path d="M7680 2611 c0 -23 -5 -30 -22 -33 -34 -5 -37 -38 -4 -38 26 0 26 0
26 -83 0 -97 13 -117 73 -117 47 0 49 22 5 35 l-33 10 -3 78 -3 77 36 0 c28 0
35 4 35 20 0 16 -7 20 -35 20 -32 0 -35 2 -35 30 0 23 -4 30 -20 30 -15 0 -20
-7 -20 -29z"/>
<path d="M2399 2565 c-28 -15 -59 -70 -59 -104 0 -34 26 -87 51 -105 30 -20
108 -21 137 0 49 34 66 109 37 164 -28 55 -109 76 -166 45z m115 -47 c9 -12
16 -41 16 -64 0 -34 -5 -47 -26 -63 -35 -27 -59 -26 -89 4 -36 35 -31 111 9
137 24 16 75 8 90 -14z"/>
<path d="M2640 2487 c0 -80 3 -98 21 -121 16 -20 29 -26 61 -26 25 0 49 7 60
17 17 15 18 15 18 0 0 -10 8 -17 20 -17 19 0 20 7 20 120 0 113 -1 120 -20
120 -18 0 -20 -7 -20 -84 0 -79 -2 -86 -26 -105 -31 -25 -44 -26 -69 -7 -16
12 -20 28 -20 102 -1 83 -3 89 -23 92 -21 3 -22 0 -22 -91z"/>
<path d="M2920 2461 l0 -121 25 0 c25 0 25 1 25 83 0 91 13 117 58 117 15 0
22 6 22 20 0 13 -7 20 -20 20 -11 0 -29 -9 -40 -20 -24 -24 -28 -25 -26 -3 0
12 -7 19 -21 21 -23 3 -23 2 -23 -117z"/>
<path d="M3540 2460 c0 -113 1 -120 20 -120 18 0 20 7 20 78 0 87 16 122 54
122 15 0 26 7 29 20 4 16 0 20 -19 20 -13 0 -33 -9 -44 -20 l-20 -20 0 20 c0
13 -7 20 -20 20 -19 0 -20 -7 -20 -120z"/>
<path d="M3739 2552 c-26 -23 -32 -38 -36 -78 -7 -82 40 -137 115 -136 74 1
112 44 112 128 0 39 -5 51 -34 80 -29 29 -41 34 -80 34 -36 0 -52 -6 -77 -28z
m130 -38 c25 -31 27 -64 6 -104 -41 -79 -150 -21 -129 69 16 65 84 84 123 35z"/>
<path d="M4000 2414 l0 -165 23 3 c20 3 22 8 22 61 0 31 3 57 8 57 4 0 7 -4 7
-9 0 -5 15 -15 34 -21 95 -31 170 74 127 178 -25 59 -105 81 -155 41 l-26 -20
0 20 c0 14 -6 21 -20 21 -19 0 -20 -7 -20 -166z m170 99 c40 -51 7 -143 -51
-143 -10 0 -30 10 -45 23 -21 18 -27 32 -27 65 0 53 24 82 69 82 24 0 38 -8
54 -27z"/>
<path d="M4353 2570 c-69 -28 -83 -149 -24 -202 26 -23 40 -28 86 -28 43 0 60
5 77 22 21 21 21 22 2 28 -11 4 -28 1 -39 -6 -11 -8 -30 -14 -43 -14 -24 0
-82 49 -82 69 0 7 34 11 95 11 79 0 95 3 95 15 0 29 -28 82 -51 99 -25 17 -80
20 -116 6z m99 -47 c35 -32 23 -43 -47 -43 -69 0 -79 8 -48 42 20 22 70 23 95
1z"/>
<path d="M4590 2578 c-1 -2 -2 -56 -3 -121 -2 -115 -2 -117 21 -117 21 0 22 4
22 78 0 92 15 122 61 122 22 0 29 5 29 20 0 15 -7 20 -25 20 -14 0 -34 -9 -45
-20 l-20 -20 0 20 c0 13 -7 20 -20 20 -11 0 -20 -1 -20 -2z"/>
<path d="M4950 2576 c0 -2 20 -52 45 -112 25 -59 45 -115 45 -124 0 -19 -40
-60 -58 -60 -14 0 -15 -10 -3 -28 7 -12 13 -11 38 1 42 22 45 27 104 177 30
74 56 138 57 142 2 5 -7 8 -20 8 -21 0 -28 -11 -57 -90 -18 -49 -34 -90 -36
-90 -2 0 -18 41 -36 90 -29 77 -37 90 -56 90 -13 0 -23 -2 -23 -4z"/>
<path d="M5813 2565 c-3 -9 -3 -55 -1 -102 4 -74 8 -89 27 -105 25 -20 81 -24
112 -8 13 7 19 7 19 0 0 -5 10 -10 23 -10 22 0 22 2 20 117 -1 111 -3 118 -22
121 -20 3 -21 -1 -21 -82 0 -73 -3 -89 -20 -106 -24 -24 -38 -25 -68 -4 -20
14 -22 23 -22 105 0 83 -1 89 -20 89 -11 0 -23 -7 -27 -15z"/>
<path d="M6100 2460 c0 -113 1 -120 20 -120 18 0 20 7 20 78 0 88 14 119 58
124 16 2 28 10 30 21 5 25 -36 22 -65 -5 l-23 -21 0 21 c0 15 -6 22 -20 22
-19 0 -20 -7 -20 -120z"/>
<path d="M6710 2460 c0 -111 1 -120 19 -120 17 0 19 9 22 86 4 92 17 114 66
114 16 0 23 6 23 20 0 28 -43 27 -70 -2 l-20 -22 0 22 c0 15 -6 22 -20 22 -19
0 -20 -7 -20 -120z"/>
<path d="M6910 2460 c0 -113 1 -120 20 -120 19 0 20 7 20 120 0 113 -1 120
-20 120 -19 0 -20 -7 -20 -120z"/>
<path d="M7079 2565 c-28 -15 -59 -70 -59 -104 0 -36 27 -88 53 -106 30 -19
95 -22 126 -6 54 29 76 113 46 171 -28 55 -109 76 -166 45z m115 -47 c9 -12
16 -41 16 -64 0 -34 -5 -47 -26 -63 -35 -27 -59 -26 -89 4 -32 31 -34 96 -5
125 28 28 84 27 104 -2z"/>
<path d="M7330 2460 c0 -113 1 -120 20 -120 18 0 20 7 20 71 0 93 18 129 68
129 15 0 22 6 22 20 0 27 -37 26 -67 -2 l-23 -21 0 21 c0 15 -6 22 -20 22 -19
0 -20 -7 -20 -120z"/>
<path d="M7530 2460 c0 -113 1 -120 20 -120 19 0 20 7 20 120 0 113 -1 120
-20 120 -19 0 -20 -7 -20 -120z"/>
<path d="M7830 2576 c0 -3 22 -56 48 -119 45 -104 48 -117 35 -140 -7 -14 -22
-28 -33 -32 -11 -4 -20 -15 -20 -26 0 -16 4 -19 23 -14 50 15 59 32 174 323 3
7 -4 12 -19 12 -20 0 -27 -10 -52 -82 -16 -46 -32 -87 -36 -91 -4 -5 -22 33
-41 82 -29 78 -37 91 -56 91 -13 0 -23 -2 -23 -4z"/>
<path d="M5200 2365 c0 -15 6 -25 15 -25 17 0 11 -25 -13 -52 -19 -22 1 -24
22 -2 10 9 16 33 16 60 0 37 -3 44 -20 44 -15 0 -20 -7 -20 -25z"/>
</g>
</svg>
